# xmcd
#
# Track frame offsets:
#	150
#	15459
#	31267
#	45381
#	61498
#	76467
#	91706
#	108741
#	128571
#	144583
#	160395
#
# Disc length: 2336 seconds
#
# Revision: 1191524752
# Processed by: cddbd v1.5.2PL0 Copyright (c) Steve Scherf et al.
# Submitted via: EZCDAudioConverter 8.5.0.1
#
DISCID=84091e0b
DTITLE=Jon Pardi - Write You A Song
DYEAR=2014
DGENRE=Country
TTITLE0=What I Can't Put Down
TTITLE1=Up All Night
TTITLE2=Write You A Song
TTITLE3=That Man
TTITLE4=Missin' You Crazy
TTITLE5=Happens All The Time
TTITLE6=Trash A Hotel Room
TTITLE7=Chasin' Them Better Days
TTITLE8=Love You From Here
TTITLE9=Empty Beer Cans
TTITLE10=When I've Been Drinkin'
EXTD=
EXTT0=
EXTT1=
EXTT2=
EXTT3=
EXTT4=
EXTT5=
EXTT6=
EXTT7=
EXTT8=
EXTT9=
EXTT10=
PLAYORDER=
